<svg xmlns="http://www.w3.org/2000/svg" viewBox="0 0 512 512" role="img" aria-label="H.I.R.A">
  <defs>
    <pattern id="plate-dots" width="18" height="18" patternUnits="userSpaceOnUse">
      <circle cx="3" cy="3" r="1.6" fill="#10110f" opacity="0.12"/>
    </pattern>
    <pattern id="badge-dots" width="18" height="18" patternUnits="userSpaceOnUse">
      <circle cx="4" cy="4" r="2.1" fill="#f7ffd9" opacity="0.12"/>
    </pattern>
    <filter id="soft-led" x="-30%" y="-30%" width="160%" height="160%">
      <feDropShadow dx="0" dy="0" stdDeviation="3" flood-color="#f7ffd9" flood-opacity="0.48"/>
    </filter>
  </defs>

  <rect width="512" height="512" rx="112" fill="#e9e9e4"/>
  <rect width="512" height="512" fill="url(#plate-dots)" opacity="0.7"/>
  <path d="M80 160h352M80 352h352M160 80v352M352 80v352" stroke="#a9aaa5" stroke-width="3" opacity="0.55"/>

  <circle cx="256" cy="256" r="146" fill="#050505"/>
  <circle cx="256" cy="256" r="128" fill="#0b0c0b" stroke="#1d1e1b" stroke-width="2"/>
  <circle cx="256" cy="256" r="116" fill="url(#badge-dots)"/>

  <g fill="#f7ffd9" filter="url(#soft-led)">
    <rect x="166" y="160" width="28" height="28" rx="4"/>
    <rect x="166" y="204" width="28" height="28" rx="4"/>
    <rect x="166" y="248" width="28" height="28" rx="4"/>
    <rect x="166" y="292" width="28" height="28" rx="4"/>
    <rect x="318" y="160" width="28" height="28" rx="4"/>
    <rect x="318" y="204" width="28" height="28" rx="4"/>
    <rect x="318" y="248" width="28" height="28" rx="4"/>
    <rect x="318" y="292" width="28" height="28" rx="4"/>
    <rect x="210" y="248" width="28" height="28" rx="4"/>
    <rect x="254" y="248" width="28" height="28" rx="4"/>
  </g>

  <rect x="356" y="144" width="26" height="26" fill="#c90018"/>
</svg>
