<svg xmlns="http://www.w3.org/2000/svg" viewBox="0 0 512 512" role="img" aria-label="H.I.R.A">
  <defs>
    <pattern id="dot-grid" width="18" height="18" patternUnits="userSpaceOnUse">
      <circle cx="3" cy="3" r="1.8" fill="#7f807b" opacity="0.34"/>
    </pattern>
    <pattern id="led-grid" width="20" height="20" patternUnits="userSpaceOnUse">
      <circle cx="4" cy="4" r="2.4" fill="#f7ffd9" opacity="0.22"/>
    </pattern>
    <filter id="red-glow" x="-40%" y="-40%" width="180%" height="180%">
      <feDropShadow dx="0" dy="0" stdDeviation="5" flood-color="#c90018" flood-opacity="0.56"/>
    </filter>
  </defs>

  <rect width="512" height="512" rx="112" fill="#e9e9e4"/>
  <rect x="32" y="32" width="448" height="448" rx="88" fill="#f4f4ef" stroke="#7f807b" stroke-width="8"/>
  <rect x="58" y="58" width="396" height="396" rx="64" fill="url(#dot-grid)" opacity="0.52"/>
  <path d="M58 150h396M58 362h396M150 58v396M362 58v396" stroke="#a9aaa5" stroke-width="4" opacity="0.82"/>

  <rect x="102" y="108" width="308" height="256" rx="28" fill="#050505"/>
  <rect x="126" y="132" width="260" height="208" rx="18" fill="#10110f"/>
  <rect x="142" y="146" width="52" height="180" rx="10" fill="#f7ffd9"/>
  <rect x="318" y="146" width="52" height="180" rx="10" fill="#f7ffd9"/>
  <rect x="142" y="222" width="228" height="48" rx="10" fill="#f7ffd9"/>
  <rect x="210" y="146" width="92" height="180" rx="8" fill="url(#led-grid)"/>

  <rect x="378" y="112" width="30" height="30" fill="#c90018" filter="url(#red-glow)"/>
  <rect x="104" y="384" width="304" height="36" rx="4" fill="#050505"/>
  <rect x="128" y="398" width="86" height="8" fill="#c90018" filter="url(#red-glow)"/>
  <rect x="222" y="398" width="58" height="8" fill="#f7ffd9" opacity="0.72"/>
  <rect x="292" y="398" width="92" height="8" fill="#f7ffd9" opacity="0.26"/>

  <circle cx="92" cy="92" r="11" fill="#e2e2dd" stroke="#7f807b" stroke-width="5"/>
  <circle cx="420" cy="420" r="11" fill="#e2e2dd" stroke="#7f807b" stroke-width="5"/>
</svg>
